HIERARCHY
ROOT mixamorig:Hips
{
	OFFSET 0.000000 201.639420 0.000000
	CHANNELS 6 Xposition Yposition Zposition Xrotation Yrotation Zrotation
	JOINT mixamorig:Spine
	{
		OFFSET 0.006200 19.524994 -2.481800
		CHANNELS 3 Xrotation Yrotation Zrotation
		JOINT mixamorig:Spine1
		{
			OFFSET -0.000900 22.835007 -2.825400
			CHANNELS 3 Xrotation Yrotation Zrotation
			JOINT mixamorig:Spine2
			{
				OFFSET -0.020600 26.552490 -3.193300
				CHANNELS 3 Xrotation Yrotation Zrotation
				JOINT mixamorig:Neck
				{
					OFFSET -0.060000 30.701813 1.352200
					CHANNELS 3 Xrotation Yrotation Zrotation
					JOINT mixamorig:Head
					{
						OFFSET -0.087200 22.547607 3.670900
						CHANNELS 3 Xrotation Yrotation Zrotation
						JOINT mixamorig:HeadTop_End
						{
							OFFSET -0.830600 40.355194 7.893500
							CHANNELS 3 Xrotation Yrotation Zrotation
							End Site
							{
								OFFSET 0.000000 30.592346 0.000000
							}
						}
						JOINT mixamorig:RightEye
						{
							OFFSET -6.302100 18.118591 16.197100
							CHANNELS 3 Xrotation Yrotation Zrotation
							End Site
							{
								OFFSET 0.000000 30.592346 0.000000
							}
						}
						JOINT mixamorig:LeftEye
						{
							OFFSET 6.741500 18.382690 16.401899
							CHANNELS 3 Xrotation Yrotation Zrotation
							End Site
							{
								OFFSET 0.000000 30.592346 0.000000
							}
						}
					}
				}
				JOINT mixamorig:LeftShoulder
				{
					OFFSET 11.924900 18.230499 1.425400
					CHANNELS 3 Xrotation Yrotation Zrotation
					JOINT mixamorig:LeftArm
					{
						OFFSET 25.435989 -0.697632 -5.229300
						CHANNELS 3 Xrotation Yrotation Zrotation
						JOINT mixamorig:LeftForeArm
						{
							OFFSET 54.684776 0.000000 0.000000
							CHANNELS 3 Xrotation Yrotation Zrotation
							JOINT mixamorig:LeftHand
							{
								OFFSET 55.098175 0.000000 0.000000
								CHANNELS 3 Xrotation Yrotation Zrotation
								JOINT mixamorig:LeftHandMiddle1
								{
									OFFSET 23.369751 0.000000 0.000000
									CHANNELS 3 Xrotation Yrotation Zrotation
									JOINT mixamorig:LeftHandMiddle2
									{
										OFFSET 6.378677 0.000000 0.000000
										CHANNELS 3 Xrotation Yrotation Zrotation
										JOINT mixamorig:LeftHandMiddle3
										{
											OFFSET 6.148331 0.000000 0.000000
											CHANNELS 3 Xrotation Yrotation Zrotation
											JOINT mixamorig:LeftHandMiddle4
											{
												OFFSET 6.582504 0.000000 0.000000
												CHANNELS 3 Xrotation Yrotation Zrotation
												End Site
												{
													OFFSET -1.168900 6.395691 1.028606
												}
											}
										}
									}
								}
								JOINT mixamorig:LeftHandThumb1
								{
									OFFSET 7.235672 -3.848206 5.434273
									CHANNELS 3 Xrotation Yrotation Zrotation
									JOINT mixamorig:LeftHandThumb2
									{
										OFFSET 6.568451 -3.792297 3.792300
										CHANNELS 3 Xrotation Yrotation Zrotation
										JOINT mixamorig:LeftHandThumb3
										{
											OFFSET 6.063080 -3.500519 3.500518
											CHANNELS 3 Xrotation Yrotation Zrotation
											JOINT mixamorig:LeftHandThumb4
											{
												OFFSET 4.793182 -2.767334 2.767349
												CHANNELS 3 Xrotation Yrotation Zrotation
												End Site
												{
													OFFSET 0.101639 6.054260 1.275483
												}
											}
										}
									}
								}
								JOINT mixamorig:LeftHandIndex1
								{
									OFFSET 23.101074 -0.309540 4.992809
									CHANNELS 3 Xrotation Yrotation Zrotation
									JOINT mixamorig:LeftHandIndex2
									{
										OFFSET 6.226883 0.000000 0.000000
										CHANNELS 3 Xrotation Yrotation Zrotation
										JOINT mixamorig:LeftHandIndex3
										{
											OFFSET 6.094330 0.000000 0.000000
											CHANNELS 3 Xrotation Yrotation Zrotation
											JOINT mixamorig:LeftHandIndex4
											{
												OFFSET 5.482605 0.000000 0.000000
												CHANNELS 3 Xrotation Yrotation Zrotation
												End Site
												{
													OFFSET -1.427902 5.233032 0.797164
												}
											}
										}
									}
								}
								JOINT mixamorig:LeftHandRing1
								{
									OFFSET 22.299240 0.021149 -3.964172
									CHANNELS 3 Xrotation Yrotation Zrotation
									JOINT mixamorig:LeftHandRing2
									{
										OFFSET 6.321869 0.000000 0.000000
										CHANNELS 3 Xrotation Yrotation Zrotation
										JOINT mixamorig:LeftHandRing3
										{
											OFFSET 5.899796 0.000000 0.000000
											CHANNELS 3 Xrotation Yrotation Zrotation
											JOINT mixamorig:LeftHandRing4
											{
												OFFSET 6.517899 0.000000 0.000000
												CHANNELS 3 Xrotation Yrotation Zrotation
												End Site
												{
													OFFSET -1.637299 6.232208 0.980890
												}
											}
										}
									}
								}
								JOINT mixamorig:LeftHandPinky1
								{
									OFFSET 20.463791 -0.302338 -8.562233
									CHANNELS 3 Xrotation Yrotation Zrotation
									JOINT mixamorig:LeftHandPinky2
									{
										OFFSET 6.908646 0.000000 0.000000
										CHANNELS 3 Xrotation Yrotation Zrotation
										JOINT mixamorig:LeftHandPinky3
										{
											OFFSET 4.622849 0.000000 0.000000
											CHANNELS 3 Xrotation Yrotation Zrotation
											JOINT mixamorig:LeftHandPinky4
											{
												OFFSET 5.216080 0.000000 0.000000
												CHANNELS 3 Xrotation Yrotation Zrotation
												End Site
												{
													OFFSET -0.606308 5.116241 0.814926
												}
											}
										}
									}
								}
							}
						}
					}
				}
				JOINT mixamorig:RightShoulder
				{
					OFFSET -12.001300 18.284088 1.348900
					CHANNELS 3 Xrotation Yrotation Zrotation
					JOINT mixamorig:RightArm
					{
						OFFSET -25.308500 -0.751312 -5.164599
						CHANNELS 3 Xrotation Yrotation Zrotation
						JOINT mixamorig:RightForeArm
						{
							OFFSET -54.684429 0.000000 0.000000
							CHANNELS 3 Xrotation Yrotation Zrotation
							JOINT mixamorig:RightHand
							{
								OFFSET -55.150291 0.000000 0.000000
								CHANNELS 3 Xrotation Yrotation Zrotation
								JOINT mixamorig:RightHandMiddle1
								{
									OFFSET -23.317566 0.000000 0.000000
									CHANNELS 3 Xrotation Yrotation Zrotation
									JOINT mixamorig:RightHandMiddle2
									{
										OFFSET -6.378403 0.000000 0.000000
										CHANNELS 3 Xrotation Yrotation Zrotation
										JOINT mixamorig:RightHandMiddle3
										{
											OFFSET -6.148193 0.000000 0.000000
											CHANNELS 3 Xrotation Yrotation Zrotation
											JOINT mixamorig:RightHandMiddle4
											{
												OFFSET -6.583389 0.000000 0.000000
												CHANNELS 3 Xrotation Yrotation Zrotation
												End Site
												{
													OFFSET 1.171692 6.395905 1.029786
												}
											}
										}
									}
								}
								JOINT mixamorig:RightHandThumb1
								{
									OFFSET -7.190521 -3.860474 5.435846
									CHANNELS 3 Xrotation Yrotation Zrotation
									JOINT mixamorig:RightHandThumb2
									{
										OFFSET -6.567429 -3.791718 3.791708
										CHANNELS 3 Xrotation Yrotation Zrotation
										JOINT mixamorig:RightHandThumb3
										{
											OFFSET -6.062469 -3.500153 3.500166
											CHANNELS 3 Xrotation Yrotation Zrotation
											JOINT mixamorig:RightHandThumb4
											{
												OFFSET -4.792618 -2.767029 2.767022
												CHANNELS 3 Xrotation Yrotation Zrotation
												End Site
												{
													OFFSET -0.100327 6.053253 1.276754
												}
											}
										}
									}
								}
								JOINT mixamorig:RightHandIndex1
								{
									OFFSET -23.048981 -0.310791 4.992554
									CHANNELS 3 Xrotation Yrotation Zrotation
									JOINT mixamorig:RightHandIndex2
									{
										OFFSET -6.227539 0.000000 0.000000
										CHANNELS 3 Xrotation Yrotation Zrotation
										JOINT mixamorig:RightHandIndex3
										{
											OFFSET -6.095047 0.000000 0.000000
											CHANNELS 3 Xrotation Yrotation Zrotation
											JOINT mixamorig:RightHandIndex4
											{
												OFFSET -5.484772 0.000000 0.000000
												CHANNELS 3 Xrotation Yrotation Zrotation
												End Site
												{
													OFFSET 1.420593 5.237305 0.797056
												}
											}
										}
									}
								}
								JOINT mixamorig:RightHandRing1
								{
									OFFSET -22.246323 0.020569 -3.963762
									CHANNELS 3 Xrotation Yrotation Zrotation
									JOINT mixamorig:RightHandRing2
									{
										OFFSET -6.322128 0.000000 0.000000
										CHANNELS 3 Xrotation Yrotation Zrotation
										JOINT mixamorig:RightHandRing3
										{
											OFFSET -5.900024 0.000000 0.000000
											CHANNELS 3 Xrotation Yrotation Zrotation
											JOINT mixamorig:RightHandRing4
											{
												OFFSET -6.518356 0.000000 0.000000
												CHANNELS 3 Xrotation Yrotation Zrotation
												End Site
												{
													OFFSET 1.636398 6.232697 0.982186
												}
											}
										}
									}
								}
								JOINT mixamorig:RightHandPinky1
								{
									OFFSET -20.411011 -0.303314 -8.561701
									CHANNELS 3 Xrotation Yrotation Zrotation
									JOINT mixamorig:RightHandPinky2
									{
										OFFSET -6.907349 0.000000 0.000000
										CHANNELS 3 Xrotation Yrotation Zrotation
										JOINT mixamorig:RightHandPinky3
										{
											OFFSET -4.623840 0.000000 0.000000
											CHANNELS 3 Xrotation Yrotation Zrotation
											JOINT mixamorig:RightHandPinky4
											{
												OFFSET -5.218353 0.000000 0.000000
												CHANNELS 3 Xrotation Yrotation Zrotation
												End Site
												{
													OFFSET 0.602097 5.118835 0.816273
												}
											}
										}
									}
								}
							}
						}
					}
				}
			}
		}
	}
	JOINT mixamorig:LeftUpLeg
	{
		OFFSET 18.168400 -13.561905 -0.039000
		CHANNELS 3 Xrotation Yrotation Zrotation
		JOINT mixamorig:LeftLeg
		{
			OFFSET 0.577358 -80.825211 -3.695000
			CHANNELS 3 Xrotation Yrotation Zrotation
			JOINT mixamorig:LeftFoot
			{
				OFFSET -0.577356 -83.370262 -6.520700
				CHANNELS 3 Xrotation Yrotation Zrotation
				JOINT mixamorig:LeftToeBase
				{
					OFFSET 0.750401 -20.798306 25.135401
					CHANNELS 3 Xrotation Yrotation Zrotation
					JOINT mixamorig:LeftToe_End
					{
						OFFSET -0.000500 0.001200 19.917799
						CHANNELS 3 Xrotation Yrotation Zrotation
						End Site
						{
							OFFSET 0.000000 19.917805 0.000000
						}
					}
				}
			}
		}
	}
	JOINT mixamorig:RightUpLeg
	{
		OFFSET -18.162500 -13.585098 -0.041000
		CHANNELS 3 Xrotation Yrotation Zrotation
		JOINT mixamorig:RightLeg
		{
			OFFSET -0.595024 -80.945297 -3.631900
			CHANNELS 3 Xrotation Yrotation Zrotation
			JOINT mixamorig:RightFoot
			{
				OFFSET 0.595024 -83.218193 -6.561200
				CHANNELS 3 Xrotation Yrotation Zrotation
				JOINT mixamorig:RightToeBase
				{
					OFFSET -0.753601 -20.807106 25.115000
					CHANNELS 3 Xrotation Yrotation Zrotation
					JOINT mixamorig:RightToe_End
					{
						OFFSET 0.000299 0.001700 19.918200
						CHANNELS 3 Xrotation Yrotation Zrotation
						End Site
						{
							OFFSET 0.000000 19.918203 0.000000
						}
					}
				}
			}
		}
	}
}
MOTION
Frames: 5
Frame Time: 0.033333
-0.196468 178.101593 0.176752 5.808579 37.000067 -1.219207 7.616961 10.400689 0.272571 -0.368910 10.718786 -5.198489 13.645686 2.039986 -10.114787 -7.443546 32.715278 0.295621 -2.925643 53.740328 11.676466 0.000001 0.000001 0.000000 0.000001 0.000001 0.000000 0.000001 0.000001 0.000000 0.458042 0.543975 -5.747152 18.367849 18.226179 -57.612181 -0.003087 -93.057332 -0.003152 4.783257 -4.650384 17.676180 4.061943 7.898958 -71.470881 9.393890 4.659477 -127.313292 1.128018 3.457596 -36.128275 -0.000004 -0.000000 -0.000001 7.433605 13.303709 -6.108491 8.671850 33.130485 2.953530 -4.045134 33.447692 21.222950 0.000004 0.000000 -0.000000 3.894153 7.840434 -69.728213 9.393898 4.659482 -127.313278 1.128031 3.457596 -36.128262 -0.000001 -0.000002 0.000001 4.814948 8.094783 -79.104287 9.393929 4.659501 -127.313292 1.128016 3.457585 -36.128265 -0.000002 0.000002 -0.000002 5.687839 8.194527 -87.724040 9.393911 4.659498 -127.313278 1.128024 3.457598 -36.128272 -0.000001 -0.000002 0.000001 -0.137076 7.362069 10.381718 -11.181993 6.937948 58.068049 -0.000484 99.180549 0.000461 -2.358533 12.745340 2.089899 3.174568 -6.673440 70.760097 7.474840 -3.709599 127.260371 0.899524 -2.753223 36.180567 0.000004 0.000001 0.000002 5.927452 -11.417212 6.651371 8.743387 -34.997633 -3.512911 -2.745784 -39.674650 -21.662947 0.000002 0.000000 -0.000004 3.041873 -6.625175 69.021739 7.474769 -3.709565 127.260371 0.899517 -2.753230 36.180571 -0.000002 0.000000 -0.000001 3.770589 -6.836860 78.373272 7.474829 -3.709594 127.260358 0.899523 -2.753214 36.180578 0.000001 -0.000001 0.000003 4.462698 -6.925200 86.968498 7.474824 -3.709594 127.260371 0.899532 -2.753222 36.180571 0.000000 0.000003 -0.000003 -53.226862 -11.310862 -7.407093 107.570459 -4.624608 0.243639 7.158805 0.146822 5.758652 -9.568268 0.000003 -0.000003 0.000001 0.000002 -0.000001 -9.964839 -4.344141 12.600912 45.404915 -11.117308 -0.934432 -31.624913 -13.048917 -4.815852 -15.395009 0.000000 0.000001 -0.000001 0.000000 0.000000 
0.058477 180.921570 17.779118 6.217260 36.549230 1.542311 9.458100 13.841251 -2.850284 -0.115542 11.523787 -5.607368 13.841279 2.730446 -10.704598 -7.252341 31.642330 -0.311137 -2.708805 49.073079 12.683185 -0.000000 0.000001 0.000001 -0.000000 0.000001 0.000001 -0.000000 0.000001 0.000001 0.486563 -0.143145 -6.259749 18.059403 18.054734 -53.575136 -0.000729 -98.061668 -0.000622 8.995877 -2.742458 20.551817 4.061949 7.898954 -71.470881 9.393887 4.659482 -127.313292 1.128015 3.457592 -36.128272 0.000003 0.000001 0.000001 7.433613 13.303710 -6.108484 8.671846 33.130485 2.953530 -4.045139 33.447689 21.222945 0.000000 0.000001 -0.000001 3.894162 7.840432 -69.728213 9.393890 4.659484 -127.313278 1.128030 3.457596 -36.128262 -0.000000 -0.000001 -0.000001 4.814952 8.094781 -79.104287 9.393927 4.659500 -127.313292 1.128011 3.457583 -36.128262 0.000000 0.000001 0.000001 5.687845 8.194525 -87.724040 9.393911 4.659498 -127.313278 1.128024 3.457598 -36.128272 -0.000003 -0.000001 -0.000000 -0.174257 8.132387 6.951161 -19.615743 14.787841 65.581059 -0.000183 101.530837 0.000161 0.439366 14.464594 2.266699 3.174569 -6.673439 70.760090 7.474839 -3.709603 127.260371 0.899523 -2.753224 36.180567 0.000000 -0.000000 -0.000000 5.927454 -11.417212 6.651373 8.743391 -34.997633 -3.512908 -2.745785 -39.674643 -21.662947 0.000000 0.000000 -0.000000 3.041872 -6.625173 69.021746 7.474769 -3.709566 127.260358 0.899519 -2.753231 36.180578 -0.000001 -0.000000 -0.000003 3.770587 -6.836860 78.373272 7.474828 -3.709594 127.260371 0.899522 -2.753213 36.180578 -0.000002 -0.000001 -0.000000 4.462695 -6.925198 86.968498 7.474824 -3.709597 127.260371 0.899529 -2.753220 36.180567 -0.000001 0.000000 -0.000002 -54.264699 -2.722658 -11.990786 96.747943 -10.179207 0.055690 4.856413 -1.410197 9.423695 -7.524019 -0.000000 -0.000001 -0.000000 0.000000 0.000000 -0.794762 -8.297649 10.091793 35.560096 -9.710045 -0.519686 -22.583903 -8.388960 -5.036529 -21.563331 0.000000 -0.000000 -0.000000 -0.000001 0.000000 
0.636242 184.731094 35.931278 7.420890 37.174391 3.262432 10.441055 16.803975 -5.145348 -0.092330 12.205344 -5.868334 13.823630 3.327902 -11.137219 -7.399655 30.548380 -0.698038 -2.204152 44.620871 14.731637 0.000001 0.000002 0.000002 0.000001 0.000002 0.000002 0.000001 0.000002 0.000002 0.494288 -0.636779 -6.041952 20.573300 12.743999 -49.944829 0.000329 -102.781766 0.000337 11.681198 -1.615151 22.297684 4.061943 7.898956 -71.470881 9.393888 4.659477 -127.313292 1.128011 3.457592 -36.128275 0.000001 -0.000000 0.000002 7.433618 13.303708 -6.108485 8.671851 33.130481 2.953536 -4.045131 33.447692 21.222936 0.000002 -0.000002 0.000000 3.894156 7.840431 -69.728213 9.393890 4.659481 -127.313278 1.128025 3.457594 -36.128269 0.000001 0.000001 0.000001 4.814952 8.094782 -79.104287 9.393928 4.659505 -127.313278 1.128016 3.457584 -36.128262 0.000001 0.000000 -0.000000 5.687841 8.194525 -87.724040 9.393909 4.659497 -127.313278 1.128024 3.457600 -36.128272 -0.000002 0.000004 -0.000000 -0.134729 9.303336 2.715692 -28.055707 20.262526 70.890055 -0.000027 102.148197 0.000025 -0.498494 15.305691 2.902743 3.174566 -6.673437 70.760090 7.474842 -3.709603 127.260371 0.899521 -2.753222 36.180571 -0.000003 -0.000000 -0.000000 5.927450 -11.417211 6.651374 8.743387 -34.997633 -3.512905 -2.745783 -39.674643 -21.662946 -0.000002 0.000000 0.000002 3.041871 -6.625176 69.021746 7.474769 -3.709567 127.260371 0.899516 -2.753235 36.180574 0.000001 -0.000001 0.000001 3.770592 -6.836856 78.373272 7.474831 -3.709597 127.260371 0.899526 -2.753214 36.180578 -0.000006 0.000002 0.000000 4.462695 -6.925198 86.968498 7.474822 -3.709594 127.260371 0.899536 -2.753218 36.180567 0.000000 0.000001 0.000001 -52.170023 1.401732 -17.579216 79.937939 -9.216505 0.247959 0.279407 -0.164268 -0.860720 -5.548378 -0.000005 0.000001 -0.000001 0.000000 -0.000001 6.160257 -13.962864 7.793608 26.309137 -7.625181 -0.086067 -6.385965 -5.121809 1.227055 -33.789400 0.860081 -5.090867 -0.000000 -0.000001 0.000000 
1.359350 188.114746 54.592190 9.064540 39.004437 3.232841 10.315626 18.852514 -6.146264 -0.313780 12.630335 -5.925508 13.584032 3.718549 -11.321564 -7.964694 29.652795 -0.737370 -1.302015 40.988826 17.265871 -0.000000 0.000000 -0.000000 -0.000000 0.000000 -0.000000 -0.000000 0.000000 -0.000000 0.481480 -0.696141 -4.921557 24.087137 5.308725 -47.715165 0.000062 -105.764086 0.000103 12.748464 -0.994811 23.624883 4.061946 7.898959 -71.470874 9.393887 4.659471 -127.313292 1.128016 3.457595 -36.128279 0.000002 0.000005 -0.000001 7.433612 13.303711 -6.108488 8.671849 33.130481 2.953534 -4.045131 33.447689 21.222948 -0.000002 0.000000 0.000001 3.894156 7.840432 -69.728213 9.393892 4.659483 -127.313278 1.128033 3.457598 -36.128269 0.000000 -0.000003 0.000002 4.814950 8.094782 -79.104293 9.393928 4.659506 -127.313292 1.128020 3.457585 -36.128262 -0.000001 0.000004 0.000001 5.687842 8.194525 -87.724040 9.393911 4.659500 -127.313278 1.128024 3.457598 -36.128269 -0.000003 0.000005 -0.000001 0.097867 10.793845 -1.129773 -33.198042 25.240022 71.393242 0.000020 102.092060 -0.000026 -4.908990 15.623151 4.483904 3.174566 -6.673439 70.760097 7.474835 -3.709603 127.260371 0.899527 -2.753224 36.180571 -0.000004 0.000000 -0.000002 5.927446 -11.417214 6.651370 8.743385 -34.997626 -3.512913 -2.745787 -39.674646 -21.662939 -0.000004 -0.000000 -0.000000 3.041870 -6.625174 69.021746 7.474773 -3.709568 127.260371 0.899521 -2.753228 36.180574 0.000002 0.000000 -0.000001 3.770590 -6.836858 78.373265 7.474829 -3.709593 127.260358 0.899521 -2.753217 36.180578 0.000000 0.000000 0.000001 4.462695 -6.925195 86.968498 7.474827 -3.709593 127.260371 0.899529 -2.753222 36.180571 -0.000003 -0.000001 -0.000000 -47.674949 1.047370 -22.649628 58.770834 -6.886043 0.521572 -1.281809 0.295775 -8.503486 -5.459179 0.000008 -0.000011 -0.000000 -0.000000 -0.000000 11.313028 -19.290515 7.615283 19.278921 -5.471743 -0.002097 9.878813 -3.187710 13.088076 -37.243840 4.048735 -13.137459 -0.000001 0.000001 -0.000000 
2.095286 189.926453 73.673355 10.432769 41.536467 1.655897 9.235062 19.594819 -5.714748 -0.699714 12.660755 -5.771137 13.203310 3.777030 -11.203558 -8.722794 29.161947 -0.442166 -0.178241 38.776780 19.394858 -0.000000 0.000003 -0.000002 -0.000000 0.000003 -0.000002 -0.000000 0.000003 -0.000002 0.396817 -0.281475 -3.255460 25.833908 -1.286511 -47.466768 0.000059 -105.282722 0.000041 12.193764 -0.317074 24.823151 4.061944 7.898958 -71.470874 9.393888 4.659476 -127.313292 1.128013 3.457594 -36.128275 0.000001 -0.000001 -0.000002 7.433608 13.303708 -6.108489 8.671851 33.130488 2.953533 -4.045133 33.447692 21.222938 0.000000 0.000001 0.000001 3.894154 7.840433 -69.728213 9.393891 4.659482 -127.313278 1.128030 3.457596 -36.128262 0.000000 0.000002 0.000001 4.814948 8.094784 -79.104287 9.393928 4.659506 -127.313292 1.128017 3.457590 -36.128262 -0.000001 0.000002 0.000002 5.687838 8.194525 -87.724040 9.393911 4.659496 -127.313278 1.128024 3.457597 -36.128269 0.000002 -0.000001 -0.000000 0.409442 12.353437 -3.112898 -31.968919 30.842382 66.703259 0.000006 102.718491 0.000018 -11.085533 16.140738 7.061584 3.174569 -6.673438 70.760097 7.474840 -3.709604 127.260371 0.899520 -2.753224 36.180567 -0.000003 0.000001 -0.000001 5.927450 -11.417214 6.651369 8.743378 -34.997623 -3.512912 -2.745776 -39.674643 -21.662947 0.000000 -0.000001 -0.000002 3.041869 -6.625178 69.021746 7.474775 -3.709568 127.260371 0.899519 -2.753231 36.180581 0.000002 -0.000001 -0.000001 3.770587 -6.836862 78.373265 7.474828 -3.709596 127.260371 0.899525 -2.753215 36.180574 0.000005 -0.000002 0.000003 4.462695 -6.925202 86.968498 7.474821 -3.709596 127.260371 0.899531 -2.753219 36.180567 0.000000 -0.000001 -0.000001 -40.323053 -2.435337 -24.770255 35.800297 -8.928583 0.635195 -0.417985 -0.024374 -15.792384 -7.268056 0.000013 0.000009 -0.000000 -0.000001 0.000000 15.620228 -23.059188 10.153150 16.487745 -1.983894 -0.188840 18.795209 -4.227333 22.600063 -19.970976 4.726184 -18.245327 0.000003 0.000001 -0.000000 
